<svg width="900" height="160" viewBox="0 0 900 160" fill="none" xmlns="http://www.w3.org/2000/svg">
<mask id="mask0" mask-type="alpha" maskUnits="userSpaceOnUse" x="0" y="0" width="900" height="160">
<rect x="0.5" y="0.5" width="899" height="159" fill="#FAFAFA" stroke="#1B1A1A"/>
</mask>
<g mask="url(#mask0)">
<path d="M664.723 84.8053C660.336 84.8053 657.595 87.7241 655.402 90.4655" stroke="#1B1A1A"/>
<path d="M323.722 47.7C325.55 48.6137 329.643 51.8668 331.398 57.5689" stroke="#1B1A1A"/>
<path d="M261.223 127.2C262.32 128.662 264.842 133.231 266.158 139.81" stroke="#1B1A1A"/>
<path d="M201.466 93.7551C201.283 95.5827 202.234 100.115 207.497 103.624" stroke="#1B1A1A"/>
<path d="M445.978 103.076C446.709 104.743 448.829 108.392 451.46 109.655" stroke="#1B1A1A"/>
<path d="M530.555 96.1672C523.583 87.2935 528.654 73.349 533.09 75.2505C535.43 68.5643 533.695 60.8585 533.695 54.2792C533.09 46.0552 533.146 42.7655 534.992 42.9247C537.73 43.1608 539.341 49.3448 539.797 52.6344C540.465 57.4629 540.696 62.9574 540.696 66.3767C545.239 65.3625 548.081 68.4895 548.935 70.1798C549.569 69.5459 552.231 69.1656 557.808 72.7151C560.343 60.6721 561.611 56.8691 563.512 56.8691C565.413 56.8691 566.047 61.306 563.512 76.5182C566.047 94.8996 560.977 103.773 558.442 108.844C555.283 115.161 566.681 146.241 572.385 160.819H543.231C541.329 151.311 537.527 129.888 537.527 120.253C537.527 108.21 537.527 105.041 530.555 96.1672Z" stroke="#1B1A1A"/>
<path d="M531.189 86.6596C531.189 86.6596 534.569 82.434 536.259 84.7581C537.949 87.0822 541.963 91.2233 544.499 89.195C545.84 88.1216 545.218 86.6522 543.563 84.4344M533.09 75.2505C537.111 77.4434 541.309 81.4138 543.563 84.4344M543.563 84.4344C542.466 83.0692 540.822 86.1423 542.466 89.6991" stroke="#1B1A1A"/>
<path d="M540.697 66.3767C538.795 68.9121 536.26 74.6166 539.429 79.6874" stroke="#1B1A1A"/>
<path d="M548.935 70.1798C547.033 73.1377 543.991 80.1945 547.033 84.7582C549.104 87.8647 550.901 88.7978 552.104 88.8771M557.808 72.7152C559.329 79.3071 554.035 75.2398 553.371 77.7859C552.996 79.223 553.371 81.5889 553.371 81.5889C553.371 81.5889 554.85 87.7161 553.371 88.5612C553.101 88.7636 552.668 88.9143 552.104 88.8771M552.104 88.8771C548.301 90.2507 541.71 95.2799 545.766 104.407" stroke="#1B1A1A"/>
<path d="M544.498 85.392C545.343 85.8146 546.907 85.5188 546.4 83.4905" stroke="#1B1A1A"/>
<path d="M559.076 120.253C550.964 124.31 541.964 122.577 538.161 120.887L539 131L540.697 140.853L543.232 160.819H572.386C569.217 152.157 562.119 131.916 559.076 120.253Z" fill="#1B1A1A" stroke="#1B1A1A"/>
<path d="M481.714 115.571C491.034 108.991 489.002 106.25 493.936 99.1223C498.87 91.9947 510.383 84.8671 504.353 83.7706C498.322 82.674 490.099 98.574 484.616 94.1878C478.586 86.5119 486.261 61.8395 486.261 53.0671C483.63 46.9264 477.855 68.7843 475.296 80.4809C469.595 69.5153 466.707 72.9878 464.88 76.0947M481.714 115.571C478.973 128.181 481.327 154.498 484.616 162.174C472.775 162.174 463.235 162.174 458.85 162.174C460.494 154.864 462.468 130.922 461.591 115.571C452.819 100.767 453.367 95.2843 452.819 90.3499C448.981 82.1257 442.951 67.8706 445.692 67.8706C447.885 67.8706 457.753 85.9637 457.753 85.9637C457.753 85.9637 460.494 89.2533 458.85 78.8361C458.85 72.805 464.149 73.9016 464.88 76.0947M481.714 115.571C481.349 115.936 478.257 117.654 474.748 117.215M464.88 76.0947C465.063 81.943 466.525 94.1878 470.362 96.3809C474.283 98.6214 473.104 92.1775 471.459 85.9637" stroke="#1B1A1A"/>
<path d="M462 124C465.167 125.833 473.3 128.4 480.5 124" stroke="black"/>
<path d="M468.169 92.543C468.718 91.6292 470.363 90.2402 472.556 91.9947C473.104 96.381 471.459 99.6706 468.169 92.543Z" fill="#1B1A1A" stroke="#1B1A1A"/>
<path d="M459.398 84.8671C461.591 89.8015 466.525 99.1222 467.074 90.8981" stroke="#1B1A1A"/>
<path d="M463.235 91.4464C463.418 90.1671 464.332 88.1567 466.525 90.3498C467.073 93.6395 465.428 95.8326 463.235 91.4464Z" fill="#1B1A1A" stroke="#1B1A1A"/>
<path d="M209.37 70.6028C211.883 69.3235 219.925 69.9448 225.956 87.0511C231.485 88.6959 242.543 66.7648 247.569 76.0855M209.37 70.6028C208.867 71.3338 208.867 73.6731 212.888 77.1821C212.915 77.2054 212.942 77.2291 212.968 77.253M209.37 70.6028C211.769 72.4776 215.846 76.4325 212.968 77.253M247.569 76.0855C251.59 76.0855 253.098 76.6338 253.098 81.5683M247.569 76.0855C246.229 78.0959 245.257 80.1428 242.04 83.2131M253.098 81.5683C257.119 82.6648 257.621 85.4062 256.113 89.2442M253.098 81.5683C250.92 84.1269 249.981 87.4897 247.569 89.2442M256.113 89.2442C259.632 89.2442 261.14 91.4373 259.632 98.5648C258.757 102.698 252.092 113.368 246.061 119.948C246.865 133.983 251.422 152.113 253.6 159.423H227.967C229.475 147.91 230.882 122.031 224.448 110.627C216.449 96.4476 217.899 81.7258 212.968 77.253M256.113 89.2442C254.773 91.9855 254.103 93.6304 252.092 95.8235" stroke="#1B1A1A"/>
<path d="M248.614 124.882C242.474 128.83 230.705 125.065 225.589 122.689C225.223 123.42 224.492 126.746 224.492 134.203C231.071 141.659 251.356 142.427 250.807 136.396C250.65 134.669 250.259 132.558 248.614 124.882Z" fill="white" stroke="#1B1A1A"/>
<path d="M224.492 159.423V134.203C232.167 140.907 244.777 140.359 250.807 136.396L256.29 159.423H224.492Z" fill="#1B1A1A" stroke="#1B1A1A"/>
<path d="M697.968 88.0675C695.81 87.0301 688.904 87.534 683.724 101.406C678.977 102.74 670.135 85.9019 665.818 93.4605C662.365 93.4605 661.433 94.1398 661.433 98.1414C657.98 99.0306 657.397 101.06 658.691 104.172C655.67 104.172 653.511 104.963 654.806 110.743C655.556 114.095 661.28 122.748 666.459 128.084C665.769 139.466 661.855 154.168 659.985 160.097H681.998C680.703 150.759 679.494 129.773 685.019 120.525C691.889 109.026 690.644 97.0877 694.878 93.4605M697.968 88.0675C698.4 88.6604 698.4 90.5574 694.947 93.403C694.924 93.4219 694.901 93.4411 694.878 93.4605M697.968 88.0675C695.908 89.5879 692.406 92.7951 694.878 93.4605" stroke="#1B1A1A"/>
<path d="M668.56 98.6897C669.656 98.6897 670.753 97.5931 670.753 96.4966" stroke="#1B1A1A"/>
<path d="M658.691 109.107C659.24 109.107 660.446 108.778 660.885 107.462" stroke="#1B1A1A"/>
<path d="M663.077 104.172C663.991 104.172 665.819 103.186 665.819 101.431" stroke="#1B1A1A"/>
<path d="M676.911 131.951L672.17 131.404C671.072 131.278 670.08 132.065 669.954 133.162L669.407 137.903C669.28 139 670.067 139.992 671.165 140.119L675.905 140.666C677.003 140.793 677.995 140.006 678.121 138.908L678.668 134.167C678.795 133.07 678.008 132.078 676.911 131.951Z" fill="#1B1A1A" stroke="#1B1A1A"/>
<path d="M666.176 132.433C666.72 132.496 668.899 132.747 670.533 132.936" stroke="#1B1A1A"/>
<path d="M664.94 138.361L669.842 138.927" stroke="#1B1A1A"/>
<path d="M680.734 140.183C679.645 140.058 677.902 139.857 677.466 139.806" stroke="#1B1A1A"/>
<path d="M681.425 134.192C680.958 134.138 679.091 133.923 678.157 133.815" stroke="#1B1A1A"/>
<path d="M397.733 108.01C393.786 115.467 389.51 145.11 387.865 160.097H360.453C364.291 148.948 373.172 123.801 377.997 112.397C384.027 98.1415 379.641 95.4001 380.738 89.9174C381.834 84.4346 386.603 66.4458 387.865 74.0172C388.961 80.5966 386.768 80.5967 387.865 87.7243C390.556 89.1614 396.546 85.4777 402.667 80.5966C408.15 76.2249 418.667 66.3733 420.211 68.5346C422.404 71.6049 410.342 79.5001 408.15 83.8863C416.373 82.7898 425.474 70.618 428.982 72.3725C432.491 74.127 418.749 84.4346 412.535 88.8208C419.662 86.0794 436 76.5394 431.175 82.2415C426.351 87.9435 417.287 92.6587 414.728 93.7553C415.277 95.9483 431.723 88.2724 431.723 90.4655C432.82 92.6586 426.789 95.4 416.373 98.6897C405.957 101.979 402.635 106.376 397.733 108.01ZM397.733 108.01L393.347 108.559" stroke="#1B1A1A"/>
<path d="M404.312 84.4346C405.226 84.8001 407.273 86.6277 408.15 91.0139" stroke="#1B1A1A"/>
<path d="M402.119 97.5931C399.56 96.862 393.457 96.3869 389.51 100.334" stroke="#1B1A1A"/>
<path d="M311.627 71.2759C311.627 71.2759 292.958 50.6178 287.538 49.4133C282.118 48.2088 297.174 63.2655 297.174 66.2769C295.367 65.6746 279.709 54.2315 277.3 54.8337C274.891 55.436 281.516 62.6633 292.958 69.8906C286.334 68.0837 279.709 62.061 274.289 61.4588C271.278 64.4701 283.925 70.4929 289.947 74.1065C294.765 78.9247 278.505 71.0952 275.494 72.902C275.494 77.7202 291.152 81.3338 292.958 83.7429C294.765 86.152 298.378 90.9702 306.207 92.777C312.952 104.341 319.055 142.164 321.263 159.63H350.17L321.263 82.1463M311.627 71.2759C313.305 69.8906 311.748 57.6042 314.638 59.0497C318.24 63.0517 319.734 74.175 321.263 82.1463M311.627 71.2759C310.016 74.5655 310.182 77.7202 311.627 80.1293M317.691 89.9173C318.068 88.8621 320.981 86.0793 321.263 82.1463" stroke="#1B1A1A"/>
<path d="M314.402 59.2139C314.402 60.8587 314.95 64.0387 317.143 63.6001" stroke="#1B1A1A"/>
<path d="M327.887 94.5838C324.515 99.8839 313.635 102.413 308.616 103.016C308.616 103.819 308.857 106.148 309.821 109.038C318.493 111.448 327.486 105.224 330.899 101.811C330.698 101.209 329.815 98.9202 327.887 94.5838Z" fill="#1B1A1A"/>
<path d="M308.616 103.016C313.635 102.413 324.515 99.8839 327.887 94.5838M308.616 103.016C308.616 103.819 308.857 106.148 309.821 109.038C318.493 111.448 327.486 105.224 330.899 101.811C330.698 101.209 329.815 98.9202 327.887 94.5838M308.616 103.016L309.821 101.431M327.887 94.5838L325.479 93.9816" stroke="#1B1A1A"/>
<path d="M397.291 114.583C391.374 116.69 381.237 111.996 376.909 109.385C376.415 110.019 375.174 112.003 374.156 114.876C379.515 122.108 390.434 122.728 395.224 122.134C395.436 121.536 396.146 119.188 397.291 114.583Z" fill="#1B1A1A"/>
<path d="M376.909 109.385C381.237 111.996 391.374 116.69 397.291 114.583M376.909 109.385C376.415 110.019 375.174 112.003 374.156 114.876C379.515 122.108 390.434 122.728 395.224 122.134C395.436 121.536 396.146 119.188 397.291 114.583M376.909 109.385L379.641 108.559M397.291 114.583L395.762 112.627" stroke="#1B1A1A"/>
<path d="M299.583 82.5384C300.988 81.7354 305.003 80.7315 309.821 83.7429" stroke="#1B1A1A"/>
<path d="M597.978 59.8028C599.008 64.6601 605.603 74.8772 607.675 82.8795C603.29 80.6864 601.097 82.8795 601.097 88.3622C596.711 87.485 597.807 93.114 598.904 96.0381C596.894 95.8554 593.97 97.683 598.904 108.1C600.742 111.592 605.486 113.581 606.031 119.614C607.11 131.578 602.184 149.797 598.904 159.638C599.635 159.638 605.592 159.638 623.574 159.638C621.381 148.124 625.767 117.421 625.767 113.583C625.767 109.745 631.298 104.254 630.701 100.973C629.904 96.5864 628.508 92.7485 626.315 90.0071C624.122 87.2657 622.341 89.4588 623.574 92.7485C623.026 91.2864 620.943 87.2657 616.995 82.8795C612.921 78.3521 606.23 62.9494 601.552 58.3366M597.978 59.8028C597.661 58.307 597.871 57.3195 598.904 57.0614C599.668 56.8703 600.565 57.3632 601.552 58.3366M597.978 59.8028C598.662 60.7165 600.25 61.3379 601.127 60.8993C602.004 60.4607 601.776 59.3736 601.552 58.3366" stroke="#1B1A1A"/>
<path d="M597.838 160.137C599.592 157.505 603.137 134.368 604.416 123.403C613.188 127.241 621.412 126.144 626.346 123.951C626.784 125.267 625.797 148.258 625.249 159.589C618.488 159.589 603.101 160.137 597.838 160.137Z" fill="white"/>
<path d="M604.416 123.403C603.137 134.368 599.592 157.505 597.838 160.137C603.101 160.137 618.488 159.589 625.249 159.589C625.797 148.258 626.784 125.267 626.346 123.951M604.416 123.403C613.188 127.241 621.412 126.144 626.346 123.951M604.416 123.403C604.234 123.22 604.307 122.745 606.061 122.306M626.346 123.951C626.528 123.768 626.565 123.293 625.249 122.854" stroke="#1B1A1A"/>
<path d="M609.87 90.0071C609.321 90.1898 608.115 90.8843 607.677 92.2002" stroke="#1B1A1A"/>
<path d="M604.935 94.3933C604.448 94.5761 603.327 95.2706 602.742 96.5864" stroke="#1B1A1A"/>
<path d="M136.288 79.1094C137.019 75.8197 137.823 69.679 135.192 71.4335C130.367 78.0128 129.892 87.699 130.257 91.7197C130.623 98.299 130.806 112.554 128.613 116.94C126.42 121.327 119.293 149.106 116.003 162.447H127.516M136.288 79.1094L152.187 57.1784C153.283 55.9242 155.147 56.8494 153.831 59.9197M136.288 79.1094C135.374 81.3025 134.095 86.1273 136.288 87.8818M153.831 59.9197C157.121 57.1784 159.862 57.1783 158.765 61.0163M153.831 59.9197C152.369 62.8439 148.897 68.1439 147.253 70.337C145.608 73.0783 146.156 75.0887 146.156 75.8197M158.765 61.0163C160.958 61.0163 160.958 62.1128 160.41 63.7577C159.972 65.0735 159.131 66.8646 158.765 67.5956M158.765 61.0163C155.476 65.037 149.007 73.7363 149.446 76.368M158.765 67.5956C159.679 67.4128 161.287 67.7052 160.41 70.337C159.533 72.9687 157.852 76.9163 157.121 78.5611M158.765 67.5956C156.938 69.9012 153.283 75.2124 153.283 78.0128M157.121 78.5611L149.994 84.0439M157.121 78.5611L166.989 67.5956C167.446 67.2404 168.029 66.8457 168.634 66.5267M149.994 84.0439C150.725 82.0335 151.638 77.9032 149.446 77.4646C148.684 77.4646 147.725 78.5881 146.704 80.1467M149.994 84.0439C148.349 86.0542 145.279 90.8425 146.156 93.9128M127.516 162.447L136.288 124.616C137.202 120.596 139.029 111.787 139.029 108.716C139.029 104.878 139.029 91.1714 141.222 88.9783C142.654 87.5467 144.786 83.0774 146.704 80.1467M127.516 162.447H150.542C149.446 148.558 148.678 120.072 152.187 115.686C156.573 110.203 169.73 102.685 172.471 94.4611C174.396 88.6858 176.592 83.4512 176.589 80.846M175.212 79.1094C175.741 77.5222 176.398 75.6798 176.628 74.1979M175.212 79.1094C174.932 79.7008 174.595 80.3961 174.221 81.1449M175.212 79.1094C176.192 79.1094 176.588 79.7413 176.589 80.846M175.212 71.4335C172.837 75.4542 167.428 84.0439 164.796 86.237M175.212 71.4335C175.383 70.3593 175.645 69.3517 175.787 68.5345M175.212 71.4335C176.631 71.4335 176.875 72.6083 176.628 74.1979M171.923 67.5956C169.182 72.5301 163.042 82.728 160.41 84.0439M171.923 67.5956C171.923 65.3777 170.207 65.6965 168.634 66.5267M171.923 67.5956C169.182 70.7276 167.903 68.3976 168.634 66.5267M171.923 67.5956C172.19 67.4621 172.44 67.3442 172.674 67.241M168.634 90.0749C169.725 89.711 172.402 84.7928 174.221 81.1449M172.674 67.241C175.212 65.2449 176.099 66.7294 175.787 68.5345M172.674 67.241C172.441 68.9515 172.737 71.6049 175.787 68.5345M174.116 73.469C174.146 74.5032 174.691 76.0969 176.628 74.1979M174.221 81.1449C174.556 81.8594 175.497 82.7999 176.589 80.846M146.704 80.1467C147.801 80.219 149.994 79.8934 149.994 78.0128" stroke="#1B1A1A"/>
<path d="M158.765 89.9172C158.765 90.4655 159.643 92.0007 163.152 93.7552" stroke="#1B1A1A"/>
<path d="M128.613 109.655C130.367 111.848 134.826 113.859 136.836 114.59L127.516 162.838H120.389H113.81C117.831 147.852 126.42 116.673 128.613 109.655Z" fill="#1B1A1A" stroke="#1B1A1A"/>
<path d="M153.831 118.428C145.498 116.235 139.394 112.762 137.384 111.3L127.516 162.838H156.572C156.339 159.894 156.045 156.068 155.738 151.872C155.444 147.925 154.344 127.931 153.831 118.428Z" fill="white" stroke="#1B1A1A"/>
<path d="M162.603 44.9587V50.4415" stroke="#1B1A1A"/>
<path d="M174.116 44.4104L171.375 48.7966" stroke="#1B1A1A"/>
<path d="M181.243 54.8276H176.309" stroke="#1B1A1A"/>
<path d="M766.962 88.0991C766.933 84.7218 767.452 78.5455 769.757 80.8587C773.248 88.3812 771.619 97.9425 770.369 101.783C768.56 108.12 765.262 121.99 766.544 126.771C767.827 131.552 769.043 160.29 769.49 174.061L757.733 171.432M766.962 88.0991L755.512 63.0658C754.666 61.5914 752.56 62.0686 753.234 65.3655M766.962 88.0991C767.417 90.4481 767.67 95.4487 765.048 96.6601M753.234 65.3655C750.473 61.9389 747.673 61.3129 747.955 65.3087M753.234 65.3655C754.089 68.553 756.478 74.5182 757.679 77.0341C758.76 80.085 757.762 81.9217 757.602 82.6351M747.955 65.3087C745.716 64.8079 745.477 65.878 745.677 67.6084C745.838 68.9927 746.306 70.9326 746.52 71.7294M747.955 65.3087C750.437 69.9837 755.145 79.9508 754.123 82.4189M746.52 71.7294C745.626 71.3424 743.92 71.2605 744.242 74.0291C744.563 76.7977 745.419 81.0341 745.806 82.8063M746.52 71.7294C747.883 74.3968 750.456 80.4147 749.845 83.1476M745.806 82.8063L751.888 89.7845M745.806 82.8063L738.121 69.8514C737.732 69.4004 737.223 68.8821 736.675 68.4326M751.888 89.7845C751.58 87.6557 751.549 83.4162 753.884 83.489C754.661 83.6629 755.396 84.9785 756.098 86.7326M751.888 89.7845C753.129 92.122 755.219 97.496 753.654 100.292M757.733 171.432L757.031 132.509C756.975 128.377 757.031 119.363 757.701 116.366C758.539 112.621 761.53 99.2444 759.769 96.6034C758.62 94.8792 757.417 90.0307 756.098 86.7326M757.733 171.432L734.218 166.173C738.369 152.868 745.369 125.245 742.743 120.163C739.46 113.811 727.664 103.469 726.659 94.8172C725.954 88.7415 724.854 83.1317 725.425 80.5899M727.21 79.2095C727.016 77.5398 726.748 75.5918 726.836 74.0931M727.21 79.2095C727.367 79.8506 727.56 80.6062 727.778 81.4223M727.21 79.2095C726.21 78.9859 725.668 79.5121 725.425 80.5899M728.885 71.7187C730.434 76.185 734.084 85.803 736.293 88.5442M728.885 71.7187C728.945 70.6313 728.898 69.5882 728.932 68.7584M728.885 71.7187C727.437 71.3947 726.931 72.4855 726.836 74.0931M733.082 68.7245C734.805 74.1661 738.85 85.5205 741.25 87.4056M733.082 68.7245C733.566 66.5601 735.25 67.2632 736.675 68.4326M733.082 68.7245C735.198 72.4071 737.013 70.4253 736.675 68.4326M733.082 68.7245C733.047 68.6969 733.012 68.6697 732.978 68.6429C732.773 68.4839 732.578 68.3388 732.393 68.2069M731.536 91.4132C730.5 90.8087 728.84 85.3978 727.778 81.4223M732.393 68.2069C730.236 65.6792 729.007 66.9255 728.932 68.7584M732.393 68.2069C732.257 69.9294 731.376 72.4512 728.932 68.7584M729.561 73.9555C729.305 74.9579 728.401 76.3888 726.836 74.0931M727.778 81.4223C727.281 82.0432 726.114 82.746 725.425 80.5899M756.098 86.7326C754.962 86.5527 752.794 85.7341 753.204 83.8989" stroke="#1B1A1A"/>
<path d="M758.477 126.473C760.99 126.694 766.612 126.755 769 125.24C769.809 128.495 770.997 132.347 770.182 133.702C773.63 137.376 775.389 135.891 779.864 152.262C782.401 161.54 772.429 170.24 769.857 174.105L758.634 171.595C761.681 164.079 765.968 145.671 760.256 134.556C758.957 133.036 758.127 131.86 757.874 131.462C758.129 130.323 758.606 127.732 758.477 126.473Z" fill="white"/>
<path d="M769 125.24C766.612 126.755 760.99 126.694 758.477 126.473C758.606 127.732 758.129 130.323 757.874 131.462C758.127 131.86 758.957 133.036 760.256 134.556M769 125.24C769.809 128.495 770.997 132.347 770.182 133.702M769 125.24C769.362 125.15 769.402 124.818 766.67 124.207M770.182 133.702C768.5 134.351 766.221 135.378 760.256 134.556M770.182 133.702C773.63 137.376 775.389 135.891 779.864 152.262C782.401 161.54 772.429 170.24 769.857 174.105L758.634 171.595C761.681 164.079 765.968 145.671 760.256 134.556" stroke="#1B1A1A"/>
<path d="M740.963 124.606C746.644 126.696 754.8 125.48 757.314 124.164C757.963 125.846 758.502 128.016 757.629 131.92C753.762 136.383 744.538 133.945 740.654 132.222C740.763 131.734 740.003 128.9 740.963 124.606Z" fill="white"/>
<path d="M740.963 124.606C746.644 126.696 754.8 125.48 757.314 124.164C757.963 125.846 758.502 128.016 757.629 131.92C753.762 136.383 744.538 133.945 740.654 132.222C740.763 131.734 740.003 128.9 740.963 124.606ZM740.963 124.606C740.837 124.407 741.137 123.825 743.351 123.091" stroke="#1B1A1A"/>
<path d="M741.648 93.5131C741.529 94.0481 740.298 95.3459 736.331 96.2568" stroke="#1B1A1A"/>
<path d="M747.541 48.7617L746.344 54.1123" stroke="#1B1A1A"/>
<path d="M735.903 45.5973L737.745 50.5039" stroke="#1B1A1A"/>
<path d="M726.669 53.3493L731.071 56.0491" stroke="#1B1A1A"/>
<path d="M732.579 148.349C730.55 140.927 737.208 134.526 740.79 132.253C747.403 134.756 755.428 135.526 757.874 131.462C768.399 144.882 762.05 172.359 757.658 171.377L733.749 166.03C724.484 159.347 732.034 150.788 732.579 148.349Z" fill="white" stroke="#1B1A1A"/>
<path d="M714.34 126.858L712.349 130.456M710.358 134.054L712.349 130.456M712.349 130.456L715.441 132.168L708.991 128.598" stroke="#1B1A1A"/>
<path d="M88.1346 122.854L91.1235 125.678M94.1125 128.503L91.1235 125.678M91.1235 125.678L93.6804 122.515L88.488 128.468" stroke="#1B1A1A"/>
<path d="M59.941 43.2196L58.2191 32.1244L68.212 40.1358L78.1487 36.3765L71.9715 45.7864L82.9466 53.2997L67.934 50.0967L63.4628 62.3952L62.0362 48.8383L49.1108 48.9897L59.941 43.2196Z" fill="#1B1A1A" stroke="#1B1A1A"/>
<path d="M41.9526 58L19.9942 74.9433" stroke="#1B1A1A"/>
<path d="M51.9983 59.9999L43.1546 68.1723" stroke="#1B1A1A"/>
<path d="M827.895 115.4C830.383 115.688 833.295 113.255 833.966 111.555C832.545 115.155 834.603 117.355 836.054 118.621C833.167 118.521 831.133 120.377 830.22 121.866C830.403 121.129 830.961 118.344 827.895 115.4Z" fill="#1B1A1A" stroke="#1B1A1A"/>
<path d="M821.57 66.2903L806.215 30.4484L809.94 23.5086L846.102 47.8533L834.077 46.9167L847 67.5001L821.57 52.0001L821.57 66.2903Z" stroke="#1B1A1A"/>
<path d="M808.5 26.5L810 23.5L845.5 47.5L834 47L846 66.5L808.5 26.5Z" fill="#1B1A1A"/>
<path d="M808.5 26.5L810 23.5L845.5 47.5L834 47M808.5 26.5L834 47M808.5 26.5L846 66.5L834 47" stroke="#1B1A1A"/>
<path d="M802.541 10.4588V1.39478L796.537 6.78421L788.183 1.39478L792.621 10.4588L782.7 14.3784L792.621 16.5832L796.537 24.4224L798.625 16.5832H810.112L802.541 10.4588Z" fill="#1B1A1A" stroke="#1B1A1A"/>
</g>
</svg>
