<svg width="106" height="156" viewBox="0 0 106 156" fill="none" xmlns="http://www.w3.org/2000/svg">
<path d="M51.3915 0.172816C38.968 -1.52739 29.7931 9.73647 26.7586 15.5809C18.5845 33.3988 26.7586 66.2992 25.6184 81.7524C35.1642 89.7282 72.1069 88.8913 74.3527 80.2569C78.372 64.8037 87.7154 1.8411 51.3915 0.172816Z" fill="#181818"/>
<path d="M52.2464 69.7886C37.6417 69.7886 29.8686 53.5706 29.6377 42.3717C31.3696 14.9535 36.1428 7.08307 55.1944 5.53839C70.4357 4.30264 71.9528 25.2369 72.6456 35.5348C73.5693 47.12 67.3188 69.7886 52.2464 69.7886Z" fill="white" stroke="#181818" stroke-width="2"/>
<path d="M56.7681 14.9547C57.9739 12.562 53.9211 4.32025 51.744 0.498495C22.6039 0.498495 22.6039 36.8883 29.1353 36.8883C35.6667 32.4019 55.2609 17.9457 56.7681 14.9547Z" fill="#181818"/>
<path d="M31.1449 35.7225C33.657 30.7376 43.2029 21.7648 45.2126 19.6545C46.8908 17.8923 35.1642 31.7346 31.1449 35.7225Z" fill="white"/>
<path d="M26.802 35.7626C28.8116 31.7746 31.3237 35.0979 32.3285 37.258C32.6635 39.7505 33.1324 45.3336 32.3285 47.7263C29.314 52.2127 24.2899 40.7475 26.802 35.7626Z" fill="white"/>
<path d="M29.6377 38.8822C28.4654 39.3807 26.9246 41.275 30.1401 44.8641" stroke="#181818" stroke-width="0.6"/>
<path d="M72.8454 39.212C68.8261 25.2542 61.566 16.6436 56.7465 15.0496C54.783 14.3412 52.1412 9.20515 52.998 2.82935C72.8114 1.76672 75.5229 33.3675 72.8454 39.212Z" fill="#181818"/>
<path d="M51.744 1.32671C54.256 3.81916 56.7681 9.40225 56.7681 11.795" stroke="#373636"/>
<path d="M75.642 35.7758C73.5168 31.7596 70.8604 35.1064 69.7978 37.2819C69.4437 39.792 68.9478 45.4147 69.7978 47.8244C72.9856 52.3426 78.2984 40.7961 75.642 35.7758Z" fill="white"/>
<path d="M69.8309 42.7014C70.8357 35.7225 69.3285 21.7648 62.2947 18.6149C62.7971 17.7841 66.9683 19.7188 69.3285 24.2573C74.8551 34.8845 69.4046 45.6623 69.8309 42.7014Z" fill="#181818"/>
<path d="M73.3478 37.8853C75.3575 37.8853 75.257 41.5741 72.8454 44.3656" stroke="#181818" stroke-width="0.6"/>
<path d="M53.2512 46.1908C53.7536 47.0216 54.5575 48.783 53.7536 49.1818C52.9498 49.5805 52.4138 49.6802 52.2464 49.6802" stroke="black"/>
<path d="M49.2319 49.1818C50.0357 49.1818 50.2367 49.1818 50.7391 49.6807" stroke="black"/>
<path d="M36.336 33.6016C39.707 31.2498 45.6437 32.0495 47.7246 33.3988C49.4587 35.0855 43.3791 32.9921 40.6908 33.3988C38.2003 33.7756 35.4399 34.3438 36.336 33.6016Z" fill="#181818"/>
<path d="M67.1461 33.5468C63.7748 31.2709 57.8443 32.0448 55.7633 33.3506C54.0291 34.9829 60.1024 32.957 62.791 33.3506C65.2817 33.7152 68.0422 34.265 67.1461 33.5468Z" fill="#181818"/>
<path d="M37.6133 38.8846C41.3692 35.6501 45.0857 37.0979 46.6091 38.4933C48.2875 40.0308 44.002 37.334 41.1702 38.1115C39.6534 38.528 37.0655 39.5054 37.6133 38.8846Z" fill="#181818"/>
<path d="M41.232 39.0738C41.5348 37.5564 44.3255 37.3007 44.2991 39.5438C44.2727 41.7869 40.797 41.2543 41.232 39.0738Z" fill="#181818" stroke="#181818" stroke-width="0.772125"/>
<path d="M66.3141 38.5921C62.0795 35.6424 58.5112 37.1488 56.7292 38.5556C54.9471 39.9624 59.502 37.4491 62.5218 38.0349C64.1394 38.3487 66.9002 39.1183 66.3141 38.5921Z" fill="#181818"/>
<path d="M59.3827 38.7623C59.6606 37.6857 62.6352 37.2975 62.3888 39.5276C62.1423 41.7576 58.7358 40.8904 59.3827 38.7623Z" fill="#181818" stroke="#181818" stroke-width="0.772125"/>
<path d="M48.2271 57.1576C49.0644 57.4902 52.7488 59.1533 55.2609 57.1576" stroke="black"/>
<path d="M45.3221 79.4836C46.1484 77.424 46.717 71.1268 45.8245 68.2932C49.2319 69.7886 54.3656 71.2841 59.6862 67.7947C59.8647 70.4512 60.1142 76.5082 61.3994 79.4836C57.8825 87.2358 43.8368 83.1859 45.3221 79.4836Z" fill="white"/>
<path d="M4.11725 109.169C2.10759 85.6406 31.4799 79.7558 45.715 79.0912C51.744 84.5746 57.2705 84.5746 60.7874 78.5927C95.7556 81.783 103.93 100.03 103.093 109.169C103.093 111.828 102.591 122.23 100.581 142.568C62.7994 166.895 22.2042 152.704 6.62933 142.568C6.62933 141.239 6.12691 132.698 4.11725 109.169Z" fill="white"/>
<path d="M40.1884 79.0912C45.715 87.067 55.7633 93.5474 66.8164 79.0912L67.0999 79.138C79.0874 81.1189 92.5585 83.345 99.9759 107.007C103.33 117.706 105 126.448 103.995 126.448C99.8084 125.617 89.4294 123.457 83.8023 125.451C83.8023 118.671 83.3961 113.985 83.3961 111.992C83.3961 126.448 83.8023 135.421 83.8023 151.372C83.8023 152.868 44.7101 159.847 22.1015 149.877C22.6039 140.405 22.2968 133.14 22.1015 125.451C20.8705 124.786 11.5507 124.454 1 126.448C8.5 93.6355 10.0435 83.5776 40.1884 79.0912Z" fill="#181818"/>
<path d="M22.1015 125.451C22.2968 133.14 22.6039 140.405 22.1015 149.877C44.7101 159.847 83.8023 152.868 83.8023 151.372C83.8023 135.421 83.3961 126.448 83.3961 111.992C83.3961 113.985 83.8023 118.671 83.8023 125.451C89.4294 123.457 99.8084 125.617 103.995 126.448C105 126.448 103.33 117.706 99.9759 107.007C92.5 83.1583 78.8744 81.0851 66.8164 79.0912C55.7633 93.5474 45.715 87.067 40.1884 79.0912C10.0435 83.5776 8.5 93.6355 1 126.448C11.5507 124.454 20.8705 124.786 22.1015 125.451ZM22.1015 125.451C21.9145 118.092 22.3471 112.479 22.1015 111.992C21.6995 111.194 21.7079 120.632 22.1015 125.451Z" stroke="#181818"/>
<path d="M83.8986 122.582C86.9131 121.585 100.177 121.961 105 123.955" stroke="white"/>
<path d="M1 123.955C4.01449 124.454 16.2734 120.964 21.0966 122.958" stroke="white"/>
<path d="M38.6812 79.5897C46.7198 94.0459 62.7971 91.0549 67.8213 79.5897" stroke="white"/>
<path d="M4.0145 125.451V146.886" stroke="#181818"/>
<path d="M101.986 126.448C101.316 133.26 102.186 146.686 100.981 149.877" stroke="#181818"/>
</svg>
